<svg width="36" height="36" fill="none" xmlns="http://www.w3.org/2000/svg"><path d="M16.87 31.078a338.765 338.765 0 0 0-3.327-2.845l-.005-.004c-2.947-2.497-5.491-4.654-7.262-6.778-1.98-2.374-2.901-4.626-2.901-7.085 0-2.39.824-4.595 2.32-6.209 1.515-1.633 3.592-2.532 5.851-2.532 1.689 0 3.235.53 4.596 1.577A9.372 9.372 0 0 1 18 9.132a9.37 9.37 0 0 1 1.858-1.93c1.361-1.046 2.908-1.577 4.596-1.577 2.259 0 4.337.9 5.85 2.532 1.497 1.614 2.321 3.819 2.321 6.209 0 2.46-.922 4.71-2.9 7.085-1.771 2.124-4.316 4.28-7.262 6.777-1.007.853-2.148 1.82-3.332 2.85a1.722 1.722 0 0 1-2.262 0Z" fill="#F2F3F5"/></svg>