<svg width="36" height="36" viewBox="0 0 36 36" fill="none" xmlns="http://www.w3.org/2000/svg">
<path d="M16.8692 31.0775C15.6876 30.0502 14.5484 29.0847 13.5433 28.2331L13.5381 28.2287C10.5913 25.7318 8.04663 23.5754 6.27608 21.4513C4.29687 19.0766 3.375 16.8251 3.375 14.3655C3.375 11.9757 4.19913 9.77101 5.69542 8.15721C7.20955 6.52432 9.28717 5.625 11.5462 5.625C13.2346 5.625 14.7809 6.15576 16.142 7.20241C16.8289 7.73073 17.4515 8.37732 18 9.13152C18.5487 8.37732 19.1711 7.73073 19.8583 7.20241C21.2193 6.15576 22.7656 5.625 24.454 5.625C26.7128 5.625 28.7907 6.52432 30.3048 8.15721C31.8011 9.77101 32.625 11.9757 32.625 14.3655C32.625 16.8251 31.7034 19.0766 29.7241 21.4511C27.9536 23.5754 25.4091 25.7315 22.4627 28.2282C21.4559 29.0812 20.3148 30.0482 19.1305 31.078C18.8179 31.35 18.4162 31.5 18 31.5C17.5836 31.5 17.1821 31.35 16.8692 31.0775Z" fill="#F2F3F5"/>
</svg>
