<svg width="30" height="30" viewBox="0 0 30 30" fill="none" xmlns="http://www.w3.org/2000/svg">
<path fill-rule="evenodd" clip-rule="evenodd" d="M15 30C23.2843 30 30 23.2843 30 15C30 6.71573 23.2843 0 15 0C6.71573 0 0 6.71573 0 15C0 23.2843 6.71573 30 15 30ZM24.053 12.0683C24.643 11.4867 24.6498 10.537 24.0683 9.947C23.4867 9.35701 22.537 9.35018 21.947 9.93174L13.8696 17.8938L9.053 13.146C8.46302 12.5645 7.51329 12.5713 6.93174 13.1613C6.35018 13.7513 6.35701 14.701 6.947 15.2825L12.1146 20.3763C13.0879 21.3357 14.6512 21.3357 15.6246 20.3763L24.053 12.0683Z" fill="#F2F3F5"/>
</svg>
